<svg width="35" height="35" viewBox="0 0 35 35" fill="none" xmlns="http://www.w3.org/2000/svg">
<path d="M24.607 12.1241C24.4552 11.7308 24.2226 11.3736 23.9244 11.0757C23.6261 10.7777 23.2687 10.5455 22.8753 10.3941C22.3335 10.1935 21.7613 10.0874 21.1836 10.0806C20.2229 10.0368 19.9349 10.0259 17.5013 10.0259C15.0677 10.0259 14.7797 10.0368 13.819 10.0806C13.2407 10.0872 12.6679 10.1932 12.1255 10.3941C11.7322 10.546 11.3751 10.7785 11.0771 11.0768C10.7792 11.3751 10.547 11.7324 10.3956 12.1259C10.1949 12.6676 10.0889 13.2399 10.082 13.8175C10.0383 14.7782 10.0273 15.0662 10.0273 17.4998C10.0273 19.9334 10.0383 20.2214 10.082 21.1821C10.0887 21.7604 10.1947 22.3333 10.3956 22.8756C10.5474 23.2689 10.78 23.626 11.0782 23.924C11.3765 24.2219 11.7339 24.4541 12.1273 24.6056C12.6691 24.8062 13.2413 24.9123 13.819 24.9191C14.7797 24.9629 15.0677 24.9738 17.5013 24.9738C19.9349 24.9738 20.2229 24.9629 21.1836 24.9191C21.7619 24.9125 22.3347 24.8064 22.8771 24.6056C23.2704 24.4537 23.6275 24.2212 23.9255 23.9229C24.2234 23.6246 24.4556 23.2672 24.607 22.8738C24.8077 22.332 24.9137 21.7598 24.9206 21.1821C24.9643 20.2214 24.9753 19.9334 24.9753 17.4998C24.9753 15.0662 24.9643 14.7782 24.9206 13.8175C24.914 13.2392 24.8079 12.6664 24.607 12.1241ZM17.5013 22.1811C16.5754 22.1811 15.6704 21.9065 14.9005 21.3922C14.1307 20.8778 13.5307 20.1467 13.1764 19.2913C12.8221 18.4359 12.7294 17.4946 12.91 16.5866C13.0906 15.6785 13.5365 14.8444 14.1912 14.1897C14.8458 13.535 15.68 13.0892 16.588 12.9085C17.4961 12.7279 18.4374 12.8206 19.2927 13.1749C20.1481 13.5292 20.8792 14.1292 21.3936 14.8991C21.908 15.6689 22.1825 16.574 22.1825 17.4998C22.1825 18.7414 21.6893 19.9321 20.8114 20.81C19.9335 21.6879 18.7428 22.1811 17.5013 22.1811ZM22.3667 13.7282C22.1503 13.7282 21.9389 13.6641 21.759 13.5439C21.5791 13.4237 21.439 13.2529 21.3562 13.053C21.2734 12.8532 21.2517 12.6333 21.2939 12.4211C21.3361 12.2089 21.4403 12.014 21.5933 11.8611C21.7462 11.7081 21.9411 11.6039 22.1533 11.5617C22.3655 11.5195 22.5854 11.5412 22.7852 11.624C22.9851 11.7068 23.1559 11.847 23.2761 12.0268C23.3963 12.2067 23.4604 12.4181 23.4604 12.6345C23.4604 12.9246 23.3452 13.2028 23.1401 13.4079C22.9349 13.613 22.6567 13.7282 22.3667 13.7282Z" fill="#0D4D2E"/>
<path d="M17.5 20.539C19.1783 20.539 20.5388 19.1785 20.5388 17.5002C20.5388 15.8219 19.1783 14.4614 17.5 14.4614C15.8217 14.4614 14.4612 15.8219 14.4612 17.5002C14.4612 19.1785 15.8217 20.539 17.5 20.539Z" fill="#0D4D2E"/>
<path d="M17.5 0C14.0388 0 10.6554 1.02636 7.77753 2.94928C4.89967 4.87221 2.65665 7.60533 1.33212 10.803C0.00758243 14.0007 -0.338976 17.5194 0.336265 20.9141C1.01151 24.3087 2.67822 27.4269 5.12564 29.8744C7.57306 32.3218 10.6913 33.9885 14.0859 34.6637C17.4806 35.339 20.9993 34.9924 24.197 33.6679C27.3947 32.3434 30.1278 30.1003 32.0507 27.2225C33.9736 24.3446 35 20.9612 35 17.5C35 12.8587 33.1563 8.40752 29.8744 5.12563C26.5925 1.84374 22.1413 0 17.5 0ZM26.5599 21.2588C26.5443 22.0146 26.4006 22.7623 26.1352 23.47C25.9011 24.0754 25.5431 24.6252 25.0841 25.0841C24.6252 25.543 24.0754 25.901 23.4701 26.1352C22.7623 26.4006 22.0146 26.5443 21.2589 26.5599C20.2854 26.6036 19.9755 26.6146 17.5 26.6146C15.0245 26.6146 14.7146 26.6036 13.7412 26.5599C12.9854 26.5443 12.2377 26.4006 11.53 26.1352C10.9246 25.901 10.3748 25.543 9.9159 25.0841C9.45695 24.6252 9.09896 24.0754 8.86485 23.47C8.59936 22.7623 8.45575 22.0146 8.44011 21.2588C8.39636 20.2854 8.38542 19.9755 8.38542 17.5C8.38542 15.0245 8.39636 14.7146 8.44011 13.7411C8.45575 12.9854 8.59936 12.2377 8.86485 11.5299C9.09896 10.9246 9.45695 10.3748 9.9159 9.91589C10.3748 9.45695 10.9246 9.09895 11.53 8.86484C12.2377 8.59935 12.9854 8.45574 13.7412 8.4401C14.7146 8.39635 15.0245 8.38542 17.5 8.38542C19.9755 8.38542 20.2854 8.39635 21.2589 8.4401C22.0146 8.45574 22.7623 8.59935 23.4701 8.86484C24.0754 9.09895 24.6252 9.45695 25.0841 9.91589C25.5431 10.3748 25.9011 10.9246 26.1352 11.5299C26.4006 12.2377 26.5443 12.9854 26.5599 13.7411C26.6036 14.7146 26.6146 15.0245 26.6146 17.5C26.6146 19.9755 26.6036 20.2854 26.5599 21.2588Z" fill="#0D4D2E"/>
</svg>
