<svg width="40" height="40" viewBox="0 0 40 40" fill="none" xmlns="http://www.w3.org/2000/svg">
<circle cx="20" cy="20" r="19.5" stroke="#0D4D2E" stroke-opacity="0.5" stroke-dasharray="4 4"/>
<circle cx="20" cy="20" r="15" fill="#0D4D2E"/>
<path d="M15.432 25V23.592L18.616 20.872C18.8827 20.648 19.176 20.3973 19.496 20.12C19.8267 19.8427 20.1413 19.544 20.44 19.224C20.7493 18.904 21 18.5627 21.192 18.2C21.3947 17.8373 21.496 17.4587 21.496 17.064C21.496 16.456 21.3093 15.9813 20.936 15.64C20.5733 15.2987 20.0773 15.128 19.448 15.128C18.9147 15.128 18.4613 15.24 18.088 15.464C17.7253 15.688 17.4853 16.0027 17.368 16.408H15.64C15.736 15.7573 15.976 15.224 16.36 14.808C16.744 14.392 17.2133 14.0827 17.768 13.88C18.3227 13.6667 18.904 13.56 19.512 13.56C20.216 13.56 20.8453 13.688 21.4 13.944C21.9547 14.2 22.392 14.5787 22.712 15.08C23.032 15.5707 23.192 16.1733 23.192 16.888C23.192 17.56 23.064 18.1573 22.808 18.68C22.552 19.2027 22.2107 19.6773 21.784 20.104C21.368 20.5307 20.9147 20.9467 20.424 21.352L17.912 23.448H23.272V25H15.432Z" fill="white"/>
</svg>
