<svg width="40" height="40" viewBox="0 0 40 40" fill="none" xmlns="http://www.w3.org/2000/svg">
<circle cx="20" cy="20" r="19.5" stroke="#0D4D2E" stroke-opacity="0.5" stroke-dasharray="4 4"/>
<circle cx="20" cy="20" r="15" fill="#0D4D2E"/>
<path d="M19.72 25.128C19.24 25.128 18.7653 25.0747 18.296 24.968C17.8267 24.8613 17.3893 24.696 16.984 24.472C16.5893 24.248 16.2533 23.9493 15.976 23.576C15.7093 23.2027 15.5387 22.7493 15.464 22.216H17.176C17.2933 22.5573 17.4853 22.8293 17.752 23.032C18.0293 23.224 18.3387 23.3627 18.68 23.448C19.032 23.5333 19.384 23.576 19.736 23.576C19.9707 23.576 20.2213 23.5547 20.488 23.512C20.7653 23.4693 21.0213 23.384 21.256 23.256C21.5013 23.128 21.6987 22.9413 21.848 22.696C21.9973 22.4507 22.072 22.136 22.072 21.752C22.072 21.3787 22.0027 21.08 21.864 20.856C21.7253 20.6213 21.5387 20.44 21.304 20.312C21.08 20.184 20.824 20.0987 20.536 20.056C20.248 20.0133 19.9493 19.992 19.64 19.992H18.488V18.52H19.208C19.5493 18.52 19.8693 18.488 20.168 18.424C20.4667 18.3493 20.7227 18.248 20.936 18.12C21.16 17.9813 21.336 17.8053 21.464 17.592C21.592 17.368 21.656 17.096 21.656 16.776C21.656 16.328 21.56 15.9867 21.368 15.752C21.176 15.5067 20.9253 15.336 20.616 15.24C20.3067 15.144 19.9707 15.096 19.608 15.096C19.3093 15.096 19.0107 15.144 18.712 15.24C18.424 15.3253 18.168 15.464 17.944 15.656C17.72 15.848 17.5707 16.0933 17.496 16.392H15.832C15.896 15.8907 16.0453 15.464 16.28 15.112C16.5253 14.7493 16.824 14.4507 17.176 14.216C17.5387 13.9813 17.9387 13.816 18.376 13.72C18.8133 13.6133 19.2667 13.56 19.736 13.56C20.216 13.56 20.6693 13.6133 21.096 13.72C21.5333 13.816 21.9173 13.9813 22.248 14.216C22.5787 14.4507 22.84 14.76 23.032 15.144C23.2347 15.5173 23.336 15.976 23.336 16.52C23.336 16.8933 23.272 17.24 23.144 17.56C23.0267 17.88 22.8453 18.1627 22.6 18.408C22.3653 18.6427 22.0773 18.84 21.736 19C22.1947 19.096 22.5787 19.272 22.888 19.528C23.1973 19.784 23.4267 20.0987 23.576 20.472C23.736 20.8347 23.816 21.24 23.816 21.688C23.816 22.392 23.688 22.968 23.432 23.416C23.176 23.864 22.84 24.2107 22.424 24.456C22.0187 24.7013 21.576 24.8773 21.096 24.984C20.616 25.08 20.1573 25.128 19.72 25.128Z" fill="white"/>
</svg>
