<svg width="40" height="40" viewBox="0 0 40 40" fill="none" xmlns="http://www.w3.org/2000/svg">
<circle cx="20" cy="20" r="19.5" stroke="#0D4D2E" stroke-opacity="0.5" stroke-dasharray="4 4"/>
<circle cx="20" cy="20" r="15" fill="#0D4D2E"/>
<path d="M19.912 25.144C19.4213 25.144 18.9573 25.0853 18.52 24.968C18.0827 24.8507 17.6827 24.6747 17.32 24.44C16.968 24.1947 16.6693 23.8907 16.424 23.528C16.1893 23.1547 16.024 22.712 15.928 22.2H17.624C17.72 22.4773 17.88 22.7173 18.104 22.92C18.3387 23.1227 18.6053 23.2827 18.904 23.4C19.2133 23.5173 19.528 23.576 19.848 23.576C20.328 23.576 20.7493 23.496 21.112 23.336C21.4853 23.1653 21.7787 22.92 21.992 22.6C22.2053 22.28 22.312 21.8693 22.312 21.368C22.312 20.6747 22.0987 20.136 21.672 19.752C21.2453 19.368 20.6853 19.176 19.992 19.176C19.576 19.176 19.1867 19.2507 18.824 19.4C18.472 19.5387 18.1467 19.736 17.848 19.992H16.248L16.648 13.688H23.656V15.24H18.2L17.944 18.376C18.2427 18.1413 18.6 17.96 19.016 17.832C19.4427 17.704 19.928 17.6453 20.472 17.656C21.1973 17.656 21.8267 17.8053 22.36 18.104C22.904 18.4027 23.32 18.824 23.608 19.368C23.9067 19.9013 24.056 20.5307 24.056 21.256C24.056 22.0773 23.8693 22.776 23.496 23.352C23.1333 23.928 22.6373 24.3707 22.008 24.68C21.3893 24.9893 20.6907 25.144 19.912 25.144Z" fill="white"/>
</svg>
