<svg width="35" height="35" viewBox="0 0 35 35" fill="none" xmlns="http://www.w3.org/2000/svg">
<path d="M35 17.5C35 27.165 27.165 35 17.5 35C7.83502 35 0 27.165 0 17.5C0 7.83502 7.83502 0 17.5 0C27.165 0 35 7.83502 35 17.5Z" fill="#0D4D2E"/>
<g clip-path="url(#clip0_137_466)">
<path d="M24.9953 24.9996V24.999H24.9991V19.4978C24.9991 16.8065 24.4197 14.7334 21.2734 14.7334C19.7609 14.7334 18.7459 15.5634 18.3316 16.3503H18.2878V14.9846H15.3047V24.999H18.4109V20.0403C18.4109 18.7346 18.6584 17.4721 20.2753 17.4721C21.8684 17.4721 21.8922 18.9621 21.8922 20.124V24.9996H24.9953Z" fill="white"/>
<path d="M10.2461 14.9858H13.3561V25.0002H10.2461V14.9858Z" fill="white"/>
<path d="M11.8013 10C10.8069 10 10 10.8069 10 11.8013C10 12.7956 10.8069 13.6194 11.8013 13.6194C12.7956 13.6194 13.6025 12.7956 13.6025 11.8013C13.6019 10.8069 12.795 10 11.8013 10V10Z" fill="white"/>
</g>
<defs>
<clipPath id="clip0_137_466">
<rect width="15" height="15" fill="white" transform="translate(10 10)"/>
</clipPath>
</defs>
</svg>
